<svg xmlns="http://www.w3.org/2000/svg" width="24" height="24" viewBox="0 0 24 24" fill="none">
    <path d="M23.9998 2.3832C24.0013 2.05726 23.8715 1.74444 23.6398 1.51521L22.4846 0.360015C22.2565 0.129364 21.9455 -0.000275977 21.621 4.41128e-07H21.617C21.2946 0.000197883 20.9857 0.129917 20.7598 0.360015L15.5199 5.59995H5.19998V1.20001C5.19998 0.537239 4.6627 4.41128e-07 3.99997 4.41128e-07H3.19997C1.4335 0.00197486 0.00197441 1.4335 0 3.19997V20.9002C0.100103 22.6532 1.56022 24.018 3.31599 23.9998H22.7998C23.4626 23.9998 23.9998 23.4626 23.9998 22.7998V6.79996C23.9998 6.13723 23.4626 5.59995 22.7998 5.59995H21.2798L23.6398 3.23998C23.8695 3.01394 23.9991 2.70542 23.9998 2.3832ZM14.3119 9.99994C14.2272 10.0115 14.1421 9.98169 14.0831 9.91994C14.0236 9.86078 13.9941 9.77778 14.0031 9.69434L14.1547 8.33436C14.1611 8.30593 14.1691 8.27785 14.1787 8.25037L15.7543 9.82595C15.7283 9.83156 15.7047 9.84435 15.6775 9.84755L14.3119 9.99994ZM16.4075 9.34672L14.6571 7.59593L19.017 3.23599L20.7666 4.98516L16.4075 9.34672ZM19.5811 2.66996L20.1743 2.07716L21.923 3.82634L21.3302 4.41953L19.5811 2.66996ZM0.799993 3.19997C0.801336 1.87506 1.87506 0.801297 3.19997 0.799994H3.99997C4.22086 0.799994 4.39998 0.979073 4.39998 1.19997V17.1998C4.39998 17.4207 4.2209 17.5998 3.99997 17.5998H3.19997C2.28104 17.5995 1.40653 17.9951 0.799993 18.6854V3.19997ZM22.7998 6.39995C23.0207 6.39995 23.1998 6.57903 23.1998 6.79996V22.7998C23.1998 23.0207 23.0208 23.1999 22.7998 23.1999H3.31599C1.9955 23.222 0.889276 22.2055 0.799993 20.8878V20.7998C0.801336 19.4749 1.87506 18.4012 3.19997 18.3998H3.99997C4.6627 18.3998 5.19994 17.8626 5.19994 17.1999V6.39995H14.7199L13.8115 7.30834C13.5579 7.55822 13.3983 7.88799 13.3599 8.24192L13.2083 9.6047C13.1958 9.73762 13.2084 9.87164 13.2455 9.9999H6.39995C6.17905 9.9999 5.99993 10.179 5.99993 10.3999C5.99993 10.6208 6.17901 10.7999 6.39995 10.7999H7.59996V21.5998C7.59996 21.8207 7.77904 21.9998 7.99997 21.9998C8.22091 21.9998 8.39999 21.8208 8.39999 21.5998V15.9999H12.7999V19.1998H9.99994C9.77904 19.1998 9.59996 19.3789 9.59996 19.5998C9.59996 19.8207 9.77904 19.9998 9.99994 19.9998H17.9999C18.4417 19.9998 18.7999 19.6417 18.7999 19.1998V13.1999C18.7999 12.979 18.6208 12.7999 18.3999 12.7999C18.179 12.7999 17.9999 12.979 17.9999 13.1999V15.1999H8.39995V10.7999H14.2831C14.3221 10.8 14.3611 10.7979 14.3999 10.7935L15.7667 10.6379C16.1136 10.5986 16.4374 10.4444 16.6867 10.1999L20.4819 6.39999L22.7998 6.39995ZM17.9999 15.9999V19.1998H13.5999V15.9999H17.9999ZM23.0758 2.67277L22.4886 3.26035L20.7398 1.51157L21.3274 0.923987C21.4043 0.845089 21.5097 0.800389 21.6198 0.799994C21.732 0.80027 21.8393 0.845524 21.9178 0.925606L23.0746 2.08001C23.1551 2.15922 23.2002 2.2675 23.1998 2.38039C23.1995 2.49057 23.1548 2.59596 23.0758 2.67277Z" fill="white"/>
</svg>
