<svg width="24" height="24" viewBox="0 0 24 24" fill="none" xmlns="http://www.w3.org/2000/svg">
<g clip-path="url(#clip0_1797_4)">
<path d="M2.89046 18.6054C2.98173 18.731 2.95393 18.9067 2.82835 18.998C2.77848 19.0342 2.72063 19.0517 2.66335 19.0517C2.57645 19.0517 2.4908 19.0116 2.43582 18.9359C0.800258 16.6857 0.0134139 13.9104 0.220179 11.1212C0.429148 8.30254 1.64616 5.64833 3.64698 3.64752C5.87799 1.41651 8.84434 0.187866 11.9995 0.187866C14.7619 0.187866 17.3795 1.12963 19.4856 2.86129L19.2532 2.2993C19.1938 2.15587 19.262 1.99152 19.4055 1.93223C19.5489 1.87293 19.7133 1.94108 19.7725 2.08452L20.4874 3.81323C20.488 3.81482 20.4884 3.81646 20.489 3.81805C20.4907 3.82241 20.4919 3.82682 20.4934 3.83127C20.4973 3.84285 20.5004 3.85448 20.5028 3.86629C20.5037 3.87098 20.5047 3.87562 20.5053 3.8803C20.5076 3.89619 20.509 3.91218 20.5086 3.92812V3.92849C20.5081 3.94438 20.5059 3.96008 20.5028 3.97569C20.5019 3.98029 20.5007 3.98474 20.4996 3.98929C20.4965 4.00148 20.4926 4.01343 20.4879 4.02515C20.4864 4.02885 20.4852 4.0326 20.4836 4.03626C20.477 4.05079 20.4691 4.0648 20.4601 4.07816C20.4578 4.08149 20.4552 4.08458 20.4527 4.08782C20.4483 4.09387 20.4441 4.10005 20.4391 4.10577C20.434 4.11158 20.4286 4.11688 20.4231 4.12218C20.4223 4.12293 20.4218 4.12387 20.421 4.12462C20.4206 4.12494 20.4203 4.12513 20.4199 4.12551C20.4073 4.13727 20.3937 4.14758 20.3795 4.15673C20.3775 4.15804 20.3755 4.1594 20.3735 4.16066C20.3599 4.16896 20.3456 4.17585 20.3308 4.18166C20.3281 4.18274 20.3253 4.18387 20.3225 4.1849C20.3079 4.19015 20.293 4.19408 20.2777 4.19685C20.2749 4.19737 20.2722 4.19779 20.2694 4.19816C20.2556 4.20022 20.2417 4.20168 20.2276 4.20168C20.2261 4.20168 20.2245 4.2014 20.2228 4.20135C20.2197 4.2013 20.2167 4.20093 20.2136 4.20074C20.2004 4.20008 20.1872 4.19844 20.174 4.19587C20.17 4.19512 20.1661 4.19446 20.1621 4.19352C20.1599 4.19296 20.1576 4.19277 20.1553 4.19216L18.3482 3.71118C18.1982 3.67124 18.109 3.5173 18.149 3.36735C18.1889 3.21735 18.3429 3.12819 18.4928 3.16808L19.1995 3.35619C14.7843 -0.327196 8.18757 -0.0981652 4.04443 4.04493C0.105992 7.98341 -0.379352 14.1069 2.89046 18.6054ZM21.6912 5.24244C21.6023 5.11527 21.427 5.08424 21.2998 5.17316C21.1726 5.26208 21.1416 5.4373 21.2305 5.56452C24.3575 10.0368 23.8209 16.0889 19.9546 19.9551C17.8298 22.0799 15.0046 23.2501 11.9996 23.2501C9.37913 23.2501 6.89565 22.3601 4.8939 20.7234L5.58193 20.9064C5.73184 20.9463 5.88587 20.8571 5.92576 20.7071C5.96565 20.5571 5.8764 20.4031 5.7264 20.3632L3.91796 19.8822C3.91416 19.8812 3.91032 19.8808 3.90652 19.88C3.9016 19.8789 3.89668 19.878 3.89166 19.8771C3.87863 19.875 3.86565 19.8737 3.85266 19.8734C3.84957 19.8734 3.84657 19.8729 3.84348 19.8729C3.8274 19.8731 3.81151 19.8747 3.7958 19.8775C3.79187 19.8782 3.78807 19.8793 3.78413 19.8801C3.7719 19.8829 3.7599 19.8865 3.74818 19.8908C3.74377 19.8925 3.73941 19.894 3.73505 19.8958C3.72034 19.9022 3.70599 19.9094 3.69245 19.9183C3.69043 19.9196 3.6886 19.9212 3.68663 19.9226C3.67459 19.9309 3.66329 19.9402 3.65255 19.9505C3.65077 19.9521 3.64866 19.9533 3.64693 19.9551C3.64534 19.9566 3.64426 19.9586 3.64271 19.9602C3.63995 19.9631 3.6369 19.9656 3.63423 19.9686C3.62654 19.9774 3.61974 19.9867 3.61332 19.9962C3.61243 19.9974 3.61135 19.9986 3.61051 19.9999C3.6016 20.0135 3.59438 20.0278 3.58805 20.0426C3.58609 20.0471 3.58445 20.0516 3.58276 20.0562C3.5784 20.068 3.57488 20.0799 3.57212 20.0921C3.57127 20.0959 3.5701 20.0996 3.5694 20.1035C3.56654 20.1191 3.56504 20.1349 3.56485 20.1508C3.56485 20.1544 3.56523 20.1579 3.56532 20.1614C3.56565 20.1741 3.56687 20.1868 3.56898 20.1994C3.56977 20.2042 3.57057 20.2089 3.5716 20.2136C3.57455 20.2272 3.57845 20.2406 3.58351 20.2538C3.58435 20.256 3.58487 20.2584 3.58576 20.2606C3.5858 20.2608 3.58585 20.261 3.58595 20.2611L4.30079 21.9898C4.34555 22.0982 4.45023 22.1636 4.56057 22.1636C4.59634 22.1636 4.63276 22.1567 4.66787 22.1421C4.8113 22.0828 4.87951 21.9185 4.82016 21.7751L4.57871 21.1912C6.67355 22.889 9.26537 23.8121 11.9994 23.8121C15.1547 23.8121 18.121 22.5835 20.352 20.3525C22.3265 18.3779 23.541 15.7604 23.7718 12.9822C23.9999 10.2364 23.2609 7.48766 21.691 5.24235L21.6912 5.24244ZM3.35213 17.0991V8.47555C3.35213 7.64066 4.03074 6.96144 4.86488 6.96144H17.6228V5.66924C17.6228 5.51404 17.7486 5.38823 17.9038 5.38823H19.1356C19.9697 5.38823 20.6483 6.06683 20.6483 6.90097V15.5245C20.6483 16.3587 19.9697 17.0373 19.1356 17.0373H6.37763V18.3308C6.37763 18.486 6.25182 18.6118 6.09662 18.6118H4.86488C4.03074 18.6118 3.35213 17.9332 3.35213 17.0991V17.0991ZM5.8156 9.9883H4.86488C4.50502 9.9883 4.17413 9.86202 3.91416 9.65141V17.0991C3.91416 17.6233 4.34068 18.0498 4.86488 18.0498H5.8156V9.9883ZM18.1848 14.0117H19.1356C19.4954 14.0117 19.8263 14.138 20.0863 14.3486V6.90097C20.0863 6.37677 19.6598 5.95026 19.1356 5.95026H18.1848V14.0117ZM3.91416 8.47555C3.91416 8.99976 4.34068 9.42627 4.86488 9.42627H6.09662C6.25182 9.42627 6.37763 9.55208 6.37763 9.70729V16.4752H19.1355C19.6598 16.4752 20.0862 16.0487 20.0862 15.5245C20.0862 15.0003 19.6597 14.5738 19.1355 14.5738H17.9038C17.7486 14.5738 17.6228 14.448 17.6228 14.2928V7.52352H4.86488C4.34068 7.52352 3.91416 7.95055 3.91416 8.47555ZM8.32604 12.1399C8.27584 12.0529 8.27584 11.9458 8.32604 11.8588L10.0415 8.88908C10.0419 8.88838 10.0424 8.88777 10.0428 8.88712C10.0486 8.87722 10.0549 8.86766 10.062 8.85847C10.0624 8.85787 10.0629 8.85735 10.0634 8.85679C10.0697 8.84863 10.0767 8.8408 10.084 8.83335C10.0861 8.83129 10.0881 8.82932 10.0902 8.82735C10.0964 8.82144 10.1028 8.81577 10.1096 8.81038C10.1119 8.80855 10.1141 8.80668 10.1165 8.8049C10.1253 8.79829 10.1345 8.79201 10.1443 8.78633C10.1444 8.78629 10.1445 8.78624 10.1446 8.78619C10.1543 8.78062 10.1642 8.77588 10.1742 8.77157C10.177 8.77035 10.1799 8.76932 10.1828 8.76824C10.1906 8.76515 10.1986 8.76243 10.2066 8.76013C10.2095 8.75929 10.2125 8.7584 10.2154 8.75765C10.2252 8.75516 10.2351 8.7531 10.245 8.75169C10.246 8.75155 10.2471 8.75127 10.2482 8.75113C10.2595 8.74968 10.2708 8.74897 10.2821 8.74888C10.283 8.74888 10.2839 8.74869 10.2848 8.74869H13.7156C13.816 8.74869 13.9087 8.80222 13.9589 8.88918L15.6743 11.8589C15.6747 11.8596 15.675 11.8604 15.6754 11.8611C15.681 11.871 15.6862 11.8813 15.6906 11.8919C15.6909 11.8927 15.6911 11.8934 15.6914 11.8941C15.6952 11.9037 15.6985 11.9136 15.7013 11.9236C15.7021 11.9264 15.7028 11.9293 15.7035 11.9322C15.7055 11.9404 15.7072 11.9487 15.7084 11.9571C15.7089 11.9601 15.7094 11.9631 15.7098 11.9661C15.7111 11.9768 15.7119 11.9876 15.7119 11.9987V11.9999C15.7119 12.011 15.7111 12.0219 15.7098 12.0327C15.7094 12.0357 15.7089 12.0386 15.7084 12.0416C15.7071 12.0501 15.7055 12.0585 15.7035 12.0667C15.7028 12.0696 15.7021 12.0724 15.7013 12.0752C15.6985 12.0853 15.6952 12.0951 15.6913 12.1048C15.691 12.1055 15.6909 12.1062 15.6906 12.1069C15.6862 12.1176 15.681 12.1278 15.6753 12.1378C15.6749 12.1385 15.6747 12.1392 15.6743 12.1399L13.9589 15.1109C13.9087 15.1979 13.8159 15.2515 13.7155 15.2515H10.2851C10.2849 15.2515 10.2847 15.2515 10.2844 15.2515C10.2721 15.2515 10.2598 15.2506 10.2475 15.2489C10.2473 15.2489 10.247 15.2488 10.2468 15.2488C10.235 15.2472 10.2233 15.2449 10.2117 15.2417C10.2087 15.2409 10.206 15.2397 10.203 15.2388C10.1943 15.2362 10.1857 15.2335 10.1772 15.23C10.1657 15.2253 10.1546 15.2197 10.1439 15.2136C10.1341 15.2079 10.1251 15.2017 10.1163 15.1952C10.114 15.1934 10.1118 15.1915 10.1095 15.1897C10.1027 15.1843 10.0962 15.1787 10.09 15.1727C10.088 15.1708 10.0859 15.1688 10.0839 15.1667C10.0765 15.1591 10.0695 15.1513 10.063 15.143C10.0627 15.1425 10.0622 15.1421 10.0619 15.1416C10.0548 15.1324 10.0485 15.1228 10.0426 15.1128C10.0422 15.1122 10.0417 15.1116 10.0413 15.1109L8.32585 12.1399H8.32604ZM14.9443 12.2804H12.1625L10.7716 14.6894H13.5534L14.9443 12.2804ZM13.5534 9.31068H10.7717L12.1624 11.7184H14.9442L13.5534 9.31068ZM8.89398 11.9994L10.2849 14.4084L11.6757 11.9994L10.2849 9.59151L8.89398 11.9994Z" fill="white"/>
</g>
<defs>
<clipPath id="clip0_1797_4">
<rect width="24" height="24" fill="white"/>
</clipPath>
</defs>
</svg>
