<svg width="24" height="22" viewBox="0 0 24 22" fill="none" xmlns="http://www.w3.org/2000/svg">
<path d="M23.4609 18.8515H22.288C22.3784 18.6755 22.4297 18.4762 22.4297 18.2651L22.4293 8.72628C22.4293 8.53208 22.2719 8.37472 22.0778 8.37472C21.8835 8.37472 21.7262 8.53212 21.7262 8.72628L21.7266 18.2651C21.7266 18.5882 21.4637 18.851 21.1406 18.851L2.85984 18.8515C2.53673 18.8515 2.27391 18.5887 2.27391 18.2656L2.27344 6.07855C2.27344 5.75544 2.53627 5.49261 2.85938 5.49261L12.1879 5.49219C12.067 5.70556 12.049 5.96488 12.144 6.19531L10.8978 6.19536C10.8971 6.19536 10.8964 6.19527 10.8957 6.19527H10.2594C10.2584 6.19527 10.2575 6.19536 10.2565 6.19536L3.32812 6.19573C3.13392 6.19573 2.97656 6.35314 2.97656 6.5473L2.97689 13.9719C2.97689 14.1661 3.1343 14.3235 3.32845 14.3235C3.52266 14.3235 3.68002 14.1661 3.68002 13.9719L3.67969 6.89886L9.45323 6.89858C9.40528 7.09016 9.35161 7.32453 9.32616 7.50519C9.32198 7.53495 9.30319 7.56205 9.27586 7.5778L8.68795 7.91642C8.66058 7.93227 8.62753 7.93508 8.59941 7.92369C8.39977 7.8432 8.11439 7.75874 7.91006 7.70206C7.55592 7.60381 7.17975 7.75723 6.99577 8.07514L6.67805 8.62414C6.4935 8.94298 6.54867 9.34583 6.81216 9.60378C6.96314 9.75153 7.17863 9.95548 7.34831 10.0877C7.37184 10.106 7.38586 10.1356 7.38586 10.1669V10.8433C7.38586 10.8747 7.3718 10.9044 7.34831 10.9227C7.17863 11.0548 6.96309 11.2588 6.81216 11.4065C6.54867 11.6645 6.4935 12.0674 6.67805 12.3862L6.99577 12.9352C7.17975 13.2531 7.55573 13.4067 7.91016 13.3082C8.11439 13.2516 8.39977 13.1671 8.59955 13.0866C8.62739 13.0753 8.66048 13.0781 8.68791 13.0939L9.27586 13.4325C9.30319 13.4482 9.32198 13.4754 9.32616 13.5051C9.35616 13.7179 9.4253 14.0057 9.47803 14.2095C9.57019 14.566 9.89147 14.815 10.2593 14.815H10.8957C11.2635 14.815 11.5848 14.566 11.6769 14.2096C11.7297 14.0056 11.7989 13.7179 11.8289 13.5051C11.8331 13.4754 11.8519 13.4482 11.8792 13.4325L12.4672 13.0939C12.4945 13.0781 12.5275 13.0753 12.5556 13.0866C12.7552 13.1671 13.0406 13.2516 13.245 13.3083C13.599 13.4064 13.9753 13.2531 14.1593 12.9352L14.477 12.3862C14.6615 12.0673 14.6063 11.6645 14.3429 11.4065C14.1919 11.2588 13.9764 11.0548 13.8067 10.9227C13.7832 10.9044 13.7691 10.8747 13.7691 10.8433V10.1669C13.7691 10.1356 13.7831 10.1059 13.8067 10.0876C13.9763 9.95549 14.1919 9.75153 14.3428 9.60378C14.6063 9.34583 14.6615 8.94294 14.4769 8.62414L14.1592 8.07514C13.9752 7.75723 13.5993 7.60372 13.2448 7.70211C13.0406 7.75873 12.7552 7.8432 12.5554 7.92373C12.5276 7.93489 12.4945 7.93222 12.4671 7.91647L11.8791 7.57775C11.8518 7.56205 11.833 7.53495 11.8288 7.50523C11.8033 7.32453 11.7496 7.09006 11.7017 6.89848L12.545 6.89844C12.7391 7.17739 13.0907 7.30695 13.4232 7.21456C13.6275 7.15789 13.913 7.07342 14.1126 6.99294C14.1404 6.98173 14.1735 6.98441 14.2009 7.0002L14.7889 7.33883C14.8162 7.35458 14.835 7.38172 14.8392 7.41144C14.8692 7.6242 14.9383 7.91202 14.991 8.11588C15.0832 8.47236 15.4045 8.72136 15.7724 8.72136H16.4087C16.7766 8.72136 17.0978 8.47236 17.19 8.11592C17.2427 7.91197 17.3119 7.6242 17.3419 7.41144C17.3461 7.38172 17.3649 7.35458 17.3922 7.33883L17.9801 7.0002C18.0076 6.98441 18.0406 6.98164 18.0686 6.99298C18.2683 7.07347 18.5536 7.15794 18.758 7.21461C19.0903 7.30672 19.4419 7.17739 19.636 6.89844H20.3197L20.3202 17.4448L3.68016 17.4453L3.68006 15.4893C3.68006 15.2951 3.52266 15.1378 3.3285 15.1378C3.1343 15.1378 2.97694 15.2952 2.97694 15.4893L2.97703 17.7968C2.97703 17.991 3.13444 18.1484 3.32859 18.1484L20.6719 18.1479C20.7651 18.1479 20.8545 18.1109 20.9205 18.0449C20.9864 17.979 21.0234 17.8896 21.0234 17.7964L21.023 6.54683C21.023 6.35262 20.8656 6.19527 20.6714 6.19527H20.0372C20.1322 5.96483 20.1141 5.70552 19.9932 5.49214H21.1402C21.4633 5.49214 21.7261 5.75497 21.7261 6.07808L21.7261 7.235C21.7261 7.4292 21.8835 7.58656 22.0777 7.58656C22.2719 7.58656 22.4293 7.42916 22.4293 7.235L22.4292 6.07808C22.4292 5.36731 21.8509 4.78902 21.1402 4.78902H19.2904C19.2854 4.77669 19.2822 4.76342 19.2822 4.74959V4.07319C19.2822 4.04183 19.2962 4.0122 19.3199 3.99388C19.4895 3.86164 19.705 3.65773 19.856 3.51003C20.1195 3.25208 20.1746 2.84919 19.9901 2.53039L19.6724 1.98139C19.4884 1.66348 19.1123 1.50988 18.758 1.60836C18.5535 1.66508 18.2679 1.74955 18.0686 1.82998C18.0407 1.84114 18.0076 1.83847 17.9802 1.82272L17.3922 1.484C17.3649 1.4683 17.3461 1.4412 17.342 1.41148C17.3119 1.19853 17.2428 0.910812 17.1901 0.707047C17.0979 0.350562 16.7767 0.101562 16.4088 0.101562H15.7725C15.4046 0.101562 15.0833 0.350563 14.9912 0.707C14.9385 0.910859 14.8693 1.19853 14.8393 1.41144C14.8351 1.4412 14.8163 1.4683 14.789 1.48405L14.2011 1.82267C14.1735 1.83856 14.1405 1.84123 14.1127 1.82998C13.9135 1.74964 13.6278 1.66508 13.4232 1.60831C13.069 1.51011 12.6929 1.66348 12.5089 1.98139L12.1912 2.53039C12.0066 2.84923 12.0618 3.25208 12.3253 3.51003C12.4761 3.65769 12.6915 3.8615 12.8614 3.99392C12.885 4.0122 12.899 4.04183 12.899 4.07319V4.74959C12.899 4.76337 12.8958 4.77669 12.8908 4.78902L2.85938 4.78948C2.14861 4.78948 1.57031 5.36778 1.57031 6.07855L1.57078 18.2656C1.57078 18.4765 1.62206 18.6756 1.71225 18.8515H0.539062C0.241828 18.8515 0 19.0933 0 19.3906V20.3281C0 21.194 0.704437 21.8984 1.57031 21.8984H17.9937C18.1879 21.8984 18.3452 21.741 18.3452 21.5468C18.3452 21.3526 18.1879 21.1953 17.9937 21.1953H1.57031C1.09214 21.1953 0.703125 20.8062 0.703125 20.3281V19.5546H9.49219V19.7656C9.49219 20.2696 9.90225 20.6796 10.4062 20.6796H13.5938C14.0977 20.6796 14.5078 20.2696 14.5078 19.7656V19.5546H23.2969V20.3281C23.2969 20.8062 22.9079 21.1953 22.4297 21.1953H19.5111C19.3169 21.1953 19.1595 21.3526 19.1595 21.5468C19.1595 21.741 19.3169 21.8984 19.5111 21.8984H22.4297C23.2956 21.8984 24 21.194 24 20.3281V19.3906C24 19.0933 23.7582 18.8515 23.4609 18.8515ZM10.9963 6.97677C11.0644 7.2402 11.1128 7.46272 11.1326 7.60339C11.1674 7.84958 11.3116 8.0623 11.5282 8.18703L12.1163 8.52575C12.3325 8.65025 12.5885 8.66848 12.8184 8.57577C12.9505 8.52252 13.1687 8.45286 13.4327 8.37959C13.4785 8.3668 13.527 8.38644 13.5507 8.42731L13.8684 8.97631C13.8919 9.01686 13.8847 9.06828 13.8509 9.10133C13.6559 9.2923 13.4866 9.44563 13.3745 9.53295C13.1784 9.68572 13.066 9.91677 13.066 10.1669V10.8433C13.066 11.0935 13.1784 11.3246 13.3745 11.4773C13.4867 11.5647 13.6559 11.718 13.8509 11.909C13.8847 11.942 13.8919 11.9935 13.8684 12.034L13.5507 12.583C13.527 12.6238 13.4783 12.6433 13.4328 12.6308C13.1687 12.5575 12.9505 12.4878 12.8185 12.4346C12.5883 12.3418 12.3324 12.36 12.1162 12.4846L11.5282 12.8232C11.3115 12.9481 11.1673 13.1608 11.1326 13.4069V13.407C11.1128 13.5476 11.0643 13.7701 10.9962 14.0336C10.9843 14.0797 10.9429 14.1119 10.8956 14.1119H10.2593C10.212 14.1119 10.1707 14.0797 10.1587 14.0336C10.0906 13.7701 10.0422 13.5476 10.0223 13.4069C9.98761 13.1608 9.84342 12.9481 9.62672 12.8232L9.03881 12.4846C8.91366 12.4125 8.77528 12.3761 8.6363 12.3761C8.535 12.3761 8.43342 12.3955 8.33648 12.4346C8.20439 12.4878 7.98619 12.5575 7.72223 12.6307C7.67634 12.6436 7.62787 12.6238 7.60425 12.583L7.28653 12.034C7.26305 11.9935 7.27022 11.942 7.30402 11.909C7.49906 11.718 7.66828 11.5647 7.78045 11.4773C7.97653 11.3245 8.08894 11.0935 8.08894 10.8433V10.1669C8.08894 9.91677 7.97648 9.68567 7.78041 9.533C7.66823 9.44563 7.49906 9.2923 7.30402 9.10133C7.27022 9.06828 7.26305 9.01686 7.28653 8.97631L7.60425 8.42731C7.62792 8.38648 7.67667 8.36699 7.72214 8.37955C7.98623 8.45281 8.20439 8.52252 8.33639 8.57572C8.56641 8.66848 8.82234 8.6503 9.03876 8.5257L9.62667 8.18708C9.84338 8.0623 9.98761 7.84958 10.0223 7.60334C10.0422 7.46272 10.0906 7.2402 10.1588 6.97672C10.1705 6.93111 10.2112 6.89919 10.2578 6.89853L10.8967 6.89848C10.9436 6.899 10.9844 6.93097 10.9963 6.97677ZM12.8172 3.00758C12.7834 2.97453 12.7762 2.92311 12.7997 2.88256L13.1174 2.33356C13.141 2.29273 13.1897 2.27323 13.2353 2.2858C13.4998 2.35916 13.7179 2.42886 13.8495 2.48197C14.0796 2.57478 14.3355 2.55655 14.5519 2.43195L15.1398 2.09333C15.3565 1.96855 15.5008 1.75583 15.5355 1.50959C15.5553 1.36888 15.6038 1.14636 15.6719 0.882969C15.6838 0.836891 15.7252 0.804641 15.7725 0.804641H16.4088C16.4561 0.804641 16.4974 0.836891 16.5094 0.883016C16.5775 1.14636 16.6259 1.36888 16.6457 1.50964C16.6805 1.75583 16.8247 1.96855 17.0414 2.09328L17.6294 2.432C17.8457 2.55655 18.1017 2.57483 18.3316 2.48197C18.4634 2.42881 18.6816 2.3592 18.9458 2.28584C18.9915 2.27305 19.0402 2.29269 19.0638 2.33356L19.3815 2.88256C19.405 2.92311 19.3979 2.97453 19.3641 3.00758C19.1691 3.1985 18.9998 3.35188 18.8878 3.43916C18.6916 3.59192 18.5791 3.82297 18.5791 4.07319V4.74959C18.5791 4.99977 18.6916 5.23086 18.8877 5.38358C18.9999 5.47095 19.1691 5.62433 19.3641 5.81525C19.3979 5.8483 19.405 5.89972 19.3815 5.94027L19.0638 6.48927C19.0402 6.53009 18.9915 6.54959 18.9459 6.53703C18.6818 6.46377 18.4637 6.39406 18.3317 6.34086C18.1017 6.24809 17.8456 6.26623 17.6293 6.39087L17.0414 6.7295C16.8247 6.85433 16.6805 7.06709 16.6457 7.31319V7.31323C16.6259 7.45386 16.5775 7.67638 16.5093 7.93986C16.4974 7.98594 16.4561 8.01819 16.4088 8.01819H15.7725C15.7252 8.01819 15.6838 7.98594 15.6719 7.93981C15.6038 7.67638 15.5553 7.45386 15.5355 7.31319C15.5008 7.06709 15.3566 6.85433 15.1399 6.7295L14.552 6.39087C14.4268 6.31878 14.2884 6.28231 14.1495 6.28231C14.0482 6.28231 13.9466 6.30172 13.8496 6.34081C13.7177 6.39402 13.4995 6.46367 13.2354 6.53698C13.1896 6.54978 13.141 6.53014 13.1174 6.48927L13.0552 6.38169C13.0532 6.37799 13.051 6.37447 13.0489 6.37091L12.7997 5.94027C12.7762 5.89972 12.7834 5.8483 12.8172 5.81525C13.0121 5.62442 13.1813 5.47109 13.2936 5.38353C13.4897 5.23077 13.6021 4.99972 13.6021 4.74959V4.07319C13.6021 3.82302 13.4896 3.59192 13.2936 3.43925C13.1812 3.35173 13.0121 3.19841 12.8172 3.00758ZM13.8047 19.7656C13.8047 19.8819 13.71 19.9765 13.5938 19.9765H10.4062C10.29 19.9765 10.1953 19.8819 10.1953 19.7656V19.5546H13.8047V19.7656Z" fill="white"/>
<path d="M16.0907 6.32584C17.1484 6.32584 18.009 5.46704 18.009 4.41137C18.009 3.35575 17.1485 2.49695 16.0907 2.49695C15.0329 2.49695 14.1724 3.35575 14.1724 4.41137C14.1724 5.46704 15.0329 6.32584 16.0907 6.32584ZM15.5428 5.49212H16.6385C16.4737 5.57542 16.2877 5.62271 16.0907 5.62271C15.8937 5.62271 15.7076 5.57542 15.5428 5.49212ZM16.0907 3.20012C16.7608 3.20012 17.3059 3.7435 17.3059 4.41142C17.3059 4.54328 17.2843 4.67012 17.2451 4.78904H14.9363C14.8971 4.67012 14.8755 4.54328 14.8755 4.41142C14.8755 3.74345 15.4206 3.20012 16.0907 3.20012Z" fill="white"/>
<path d="M8.65918 10.5051C8.65918 11.5608 9.51971 12.4196 10.5775 12.4196C11.6353 12.4196 12.4958 11.5608 12.4958 10.5051C12.4958 9.4495 11.6353 8.5907 10.5775 8.5907C9.51971 8.5907 8.65918 9.44954 8.65918 10.5051ZM11.7927 10.5051C11.7927 11.173 11.2476 11.7165 10.5775 11.7165C9.90741 11.7165 9.3623 11.173 9.3623 10.5051C9.3623 9.8372 9.90741 9.29382 10.5775 9.29382C11.2476 9.29382 11.7927 9.8372 11.7927 10.5051Z" fill="white"/>
</svg>
