<svg xmlns="http://www.w3.org/2000/svg" width="24" height="24" viewBox="0 0 24 24" fill="none">
    <g clip-path="url(#clip0_1795_15)">
        <path d="M4.44129 21.2633C4.22714 21.2633 4.0542 21.0902 4.0542 20.8762V19.0099C4.0542 18.7959 4.22714 18.6228 4.44129 18.6228C4.65526 18.6228 4.82839 18.7959 4.82839 19.0099V20.8762C4.82839 21.0898 4.65488 21.2633 4.44129 21.2633Z" fill="white"/>
        <path d="M12.5903 21.8326H0.387096C0.172946 21.8326 0 21.6596 0 21.4455V17.6543C0 14.1623 2.1415 11.0381 5.32843 9.88101C5.46036 9.83262 5.60703 9.86022 5.71231 9.95113C6.5914 10.704 7.70052 11.119 8.83591 11.119C9.9766 11.119 11.0891 10.7017 11.9686 9.94338C12.0746 9.85247 12.2226 9.82487 12.3538 9.87288C13.1768 10.1723 13.9436 10.6078 14.6329 11.1678C14.7274 11.244 14.7805 11.3606 14.7758 11.4821C14.7716 11.6033 14.7108 11.7159 14.6114 11.7853L14.5645 11.8182L14.3517 11.5146L14.1453 11.769C13.5805 11.3103 12.9588 10.9444 12.2941 10.6788C11.3044 11.4636 10.0855 11.8936 8.83591 11.8936C7.59203 11.8936 6.37668 11.4666 5.38834 10.687C2.61951 11.7906 0.774192 14.5623 0.774192 17.6543V21.0584H12.5903V21.8326Z" fill="white"/>
        <path d="M8.83602 11.8932C5.68727 11.8932 3.12598 9.22528 3.12598 5.94668C3.12598 2.6679 5.68727 0 8.83602 0C11.9846 0 14.5464 2.66752 14.5464 5.94612C14.5464 9.2249 11.9846 11.8932 8.83602 11.8932ZM8.83602 0.774192C6.11425 0.774192 3.90017 3.0945 3.90017 5.94612C3.90017 8.7983 6.11425 11.1186 8.83602 11.1186C11.5576 11.1186 13.7722 8.7983 13.7722 5.94612C13.7722 3.0945 11.5576 0.774192 8.83602 0.774192Z" fill="white"/>
        <path d="M17.2668 19.8971C17.1053 19.8971 16.9432 19.8825 16.7818 19.8526C16.0714 19.7207 15.4509 19.3111 15.0336 18.6983C14.6187 18.0871 14.4611 17.3547 14.59 16.637C14.7196 15.9178 15.1226 15.2888 15.7246 14.8652C16.3289 14.4407 17.0536 14.2808 17.7646 14.4112C18.4753 14.5433 19.0954 14.9531 19.5118 15.5659L19.5151 15.5702C19.9258 16.1919 20.0821 16.9228 19.956 17.6268C19.8262 18.3456 19.4238 18.9747 18.8214 19.3983C18.3541 19.7264 17.8153 19.8971 17.2668 19.8971ZM17.2804 15.1406C16.8893 15.1406 16.5047 15.2629 16.1701 15.4986C15.7358 15.8036 15.4454 16.2565 15.3526 16.774C15.2596 17.2911 15.3742 17.82 15.6747 18.2632C15.9743 18.7036 16.4179 18.9975 16.9235 19.0917C17.4267 19.1845 17.9434 19.0692 18.3763 18.7649C18.8106 18.4598 19.1009 18.0069 19.1937 17.4898C19.2846 16.9831 19.1697 16.4534 18.8701 15.9987C18.5713 15.5594 18.1285 15.2659 17.6232 15.1723C17.5087 15.1513 17.3945 15.1406 17.2804 15.1406Z" fill="white"/>
        <path d="M17.3646 23.9999C17.3155 23.9999 17.2656 23.9954 17.2161 23.9863L14.9472 23.566C14.5138 23.4855 14.2357 23.0798 14.3144 22.6425L14.4954 21.6345C14.4703 21.6178 14.4463 21.6008 14.424 21.5838L14.3949 21.5647L13.5576 22.1535C13.4062 22.2694 13.1949 22.3215 12.9898 22.2871C12.7779 22.2525 12.5876 22.1306 12.4668 21.9526L11.1592 20.0296C11.045 19.8744 10.9963 19.6676 11.0307 19.4593C11.0651 19.2491 11.184 19.059 11.3573 18.9375L12.1768 18.346C12.1702 18.3143 12.1647 18.284 12.1598 18.2559C12.157 18.2415 12.1547 18.2268 12.1525 18.2117L11.163 18.0283C10.9602 17.9903 10.7778 17.8688 10.6632 17.6941C10.5457 17.5146 10.5081 17.3001 10.5564 17.0899L10.9675 14.8023C11.0059 14.5885 11.1216 14.4053 11.2942 14.2859C11.4658 14.167 11.6756 14.1231 11.8854 14.1619L12.8675 14.3443C12.8828 14.3199 12.8987 14.2967 12.9146 14.2749L12.9389 14.2354L12.3549 13.3765C12.2411 13.2221 12.1923 13.0157 12.226 12.8074C12.2604 12.5973 12.3793 12.4069 12.5522 12.2848L14.4455 10.954C14.5973 10.8387 14.809 10.7877 15.0135 10.8205C15.2252 10.8549 15.4157 10.9769 15.5365 11.1549L16.1175 12.0092C16.1283 12.0066 16.1391 12.0036 16.1497 12.0007C16.1623 11.997 16.1756 11.9937 16.189 11.9915C16.2026 11.9888 16.2166 11.9864 16.2306 11.9845L16.412 10.9746C16.4511 10.7601 16.5668 10.5775 16.7396 10.4578C16.9106 10.3393 17.1201 10.296 17.3302 10.3344L19.5882 10.7529C20.0218 10.8332 20.2996 11.239 20.221 11.6764L20.0395 12.6844C20.0651 12.701 20.0891 12.718 20.1115 12.735L20.1405 12.7541L20.9778 12.1654C21.1296 12.0499 21.3413 11.9985 21.5458 12.0317C21.7575 12.0661 21.948 12.188 22.0688 12.3663L23.3661 14.2885C23.4792 14.4418 23.5279 14.6482 23.4943 14.8563C23.4599 15.0665 23.341 15.257 23.1681 15.3789L22.3226 15.9728C22.326 15.9883 22.3296 16.0034 22.3334 16.0176C22.337 16.0301 22.34 16.0424 22.3419 16.0556C22.3447 16.0707 22.3474 16.0858 22.3496 16.1013L23.3387 16.2847C23.7351 16.3584 24.0127 16.7253 23.9995 17.1562C23.9988 17.1751 23.9969 17.194 23.9933 17.2127L23.5788 19.5194C23.54 19.7334 23.4244 19.9165 23.2512 20.0362C23.0794 20.1545 22.8704 20.1968 22.6602 20.1592L21.6788 19.9768C21.6633 20.0012 21.6475 20.0245 21.6316 20.0462L21.6072 20.0853L22.1914 20.9446C22.3056 21.0999 22.3544 21.3065 22.32 21.5148C22.2854 21.725 22.1667 21.9152 21.9932 22.0367L20.1006 23.3671C19.949 23.4828 19.7381 23.5346 19.5328 23.501C19.3215 23.4662 19.131 23.3446 19.0098 23.167L18.4316 22.316C18.4063 22.3211 18.3815 22.3259 18.3575 22.3304C18.3437 22.3327 18.3301 22.3355 18.3157 22.3374L18.1343 23.3469C18.0959 23.5607 17.9803 23.7436 17.8075 23.8633C17.6763 23.9531 17.5234 23.9999 17.3646 23.9999ZM14.3979 20.7023C14.4928 20.7023 14.5873 20.7372 14.6612 20.8057C14.7007 20.8421 14.7461 20.8695 14.7912 20.8994L14.8799 20.9582C14.9186 20.9869 14.9759 21.0259 15.0882 21.0778C15.2481 21.1517 15.3382 21.3243 15.3069 21.4978L15.0767 22.7795L17.3573 23.225L17.6028 21.9274C17.6298 21.7764 17.7429 21.6566 17.892 21.6197C17.9716 21.6004 18.0498 21.5899 18.1254 21.5806C18.157 21.5764 18.188 21.5729 18.2178 21.5676C18.2647 21.5589 18.3785 21.5377 18.4516 21.5086C18.6212 21.4409 18.8144 21.5001 18.9162 21.65L19.6505 22.7304L21.548 21.4022L20.816 20.2989C20.7162 20.1519 20.7289 19.9557 20.8477 19.8232C20.8839 19.7829 20.9109 19.7364 20.9404 19.6901L20.9984 19.6003C21.0266 19.5612 21.0653 19.5019 21.1177 19.3862C21.1904 19.2236 21.3626 19.1331 21.5414 19.1639L22.8018 19.3977L23.2249 17.1109C23.2214 17.0713 23.2047 17.0477 23.1974 17.0462L21.937 16.8124C21.7866 16.7844 21.6665 16.6703 21.6312 16.5209C21.6119 16.4408 21.6023 16.3626 21.593 16.2875C21.5898 16.2599 21.5868 16.2325 21.5828 16.2066C21.5724 16.1667 21.5632 16.125 21.5547 16.0819C21.5454 16.0378 21.5376 15.9917 21.5218 15.9503C21.4564 15.7842 21.5136 15.5954 21.6592 15.4923L22.7222 14.7454L21.4273 12.8001L20.3601 13.5461C20.2102 13.651 20.0082 13.6374 19.8741 13.5132C19.8348 13.4767 19.7895 13.4493 19.7441 13.4195L19.6555 13.3607C19.6167 13.3319 19.5591 13.2924 19.4472 13.241C19.2871 13.1679 19.1967 12.9944 19.2281 12.821L19.4589 11.5394L17.1892 11.0957L16.9439 12.3933C16.9169 12.5436 16.8042 12.6638 16.6562 12.7006C16.5761 12.7203 16.4984 12.7309 16.4228 12.7401C16.3965 12.7436 16.3706 12.7468 16.3459 12.7505C16.306 12.7611 16.2642 12.7708 16.2221 12.7797C16.1797 12.7885 16.1357 12.7963 16.0969 12.8118C15.9282 12.8819 15.7339 12.8222 15.6308 12.6712L14.8965 11.5908L12.999 12.9186L13.7311 14.0218C13.8313 14.1693 13.818 14.366 13.6986 14.4983C13.6628 14.5382 13.6362 14.584 13.6071 14.6299L13.5487 14.7206C13.5205 14.7595 13.4818 14.8189 13.4294 14.9346C13.3567 15.0971 13.1856 15.1877 13.0057 15.1569L11.7451 14.923L11.3159 17.2456L12.5658 17.5002C12.7161 17.5282 12.8357 17.642 12.8716 17.7905C12.8909 17.8714 12.9011 17.9501 12.9104 18.0259C12.9142 18.0584 12.9181 18.0901 12.9231 18.1207C12.9312 18.1669 12.9518 18.2848 12.9817 18.3619C13.0463 18.5264 12.9909 18.7135 12.8476 18.8167L11.8068 19.5678L13.1077 21.5167L14.1758 20.772C14.2427 20.7255 14.3206 20.7023 14.3979 20.7023Z" fill="white"/>
    </g>
    <defs>
        <clipPath id="clip0_1795_15">
            <rect width="24" height="24" fill="white"/>
        </clipPath>
    </defs>
</svg>
