<?xml version="1.0" encoding="UTF-8" standalone="no"?>
<!-- Created with Inkscape (http://www.inkscape.org/) -->

<svg
   xmlns:dc="http://purl.org/dc/elements/1.1/"
   xmlns:cc="http://creativecommons.org/ns#"
   xmlns:rdf="http://www.w3.org/1999/02/22-rdf-syntax-ns#"
   xmlns:svg="http://www.w3.org/2000/svg"
   xmlns="http://www.w3.org/2000/svg"
   xmlns:sodipodi="http://sodipodi.sourceforge.net/DTD/sodipodi-0.dtd"
   xmlns:inkscape="http://www.inkscape.org/namespaces/inkscape"
   width="1318.6223mm"
   height="351.12836mm"
   viewBox="0 0 4672.2838 1244.1556"
   id="svg3357"
   version="1.1"
   inkscape:version="0.91 r13725"
   sodipodi:docname="SAL Black Logo.svg">
  <defs
     id="defs3359" />
  <sodipodi:namedview
     id="base"
     pagecolor="#ffffff"
     bordercolor="#666666"
     borderopacity="1.0"
     inkscape:pageopacity="0.0"
     inkscape:pageshadow="2"
     inkscape:zoom="0.35"
     inkscape:cx="2072.5703"
     inkscape:cy="582.0778"
     inkscape:document-units="px"
     inkscape:current-layer="layer1"
     showgrid="false"
     fit-margin-top="0"
     fit-margin-left="0"
     fit-margin-right="0"
     fit-margin-bottom="0"
     inkscape:window-width="1920"
     inkscape:window-height="1017"
     inkscape:window-x="-8"
     inkscape:window-y="-8"
     inkscape:window-maximized="1" />
  <metadata
     id="metadata3362">
    <rdf:RDF>
      <cc:Work
         rdf:about="">
        <dc:format>image/svg+xml</dc:format>
        <dc:type
           rdf:resource="http://purl.org/dc/dcmitype/StillImage" />
        <dc:title></dc:title>
      </cc:Work>
    </rdf:RDF>
  </metadata>
  <g
     inkscape:label="Layer 1"
     inkscape:groupmode="layer"
     id="layer1"
     transform="translate(1964.7132,129.71559)">
    <path
       style="fill:rgb(17,149,198)"
       d="m -138.36724,1113.9634 c 0.2865,-0.2622 8.3959,-3.5793 18.0209,-7.3714 112.0218955,-44.1345 215.289496,-119.3018 307.0043,-223.4648 14.6882,-16.68183 42.9408,-50.84293 45.7972,-55.37463 3.469,-5.5039 22.9836,-16.7982 35.9485,-20.8057 8.5163,-2.6323 11.5219,-2.7383 112.5,-3.9665 57.0625,-0.6941 165.625,-0.9803 241.25,-0.636 149.4448,0.6804 144.5301,0.4434 159.5666,7.6972 12.1334,5.8534 15.0234,8.7162 33.4632,33.1484 27.8708,36.92813 169.2763,230.77433 194.90614,267.18753 l 2.8594,4.0625 -575.91854,0 c -316.7552,0 -575.684,-0.2145 -575.3977,-0.4766 z m -1305.36596,-2.8634 -519.6369,-0.413 34.4793,-48.436 c 18.9637,-26.6398 45.8003,-64.0605 59.6369,-83.1571 13.8366,-19.0966 35.3797,-51.0265 47.8735,-70.9554 27.2499,-43.46643 38.5582,-59.27473 53.4354,-74.69923 23.3225,-24.1803 43.2142,-34.6722 75.4156,-39.77794 17.9758,-2.85019 56.978,-2.763 95.308,0.21305 27.8422,2.16175 58.238,2.27659 582.5,2.20079 510.91916,-0.0739 554.65116,-0.24164 573.12506,-2.19881 34.1186,-3.61463 61.3688,-9.22279 89.2796,-18.37407 60.7478,-19.91761 113.7482,-54.59563 143.9519,-94.18732 12.4351,-16.30025 212.0483955,-303.83826 374.8763,-540 42.1872,-61.187495 82.0317,-118.792275 88.5432,-128.010605 59.1939,-83.800255 127.3433,-127.534985 212.6489,-136.466995 19.3853,-2.02978 58.7766,-0.81651 77.5751,2.38935 72.4711,12.35908 127.1086,47.59849 183.8774,118.5949147 15.3799,19.2344103 81.4017,111.8418853 338.00914,474.1183353 64.5235,91.09375 184.5389,260.40625 266.7009,376.25 128.0512,180.54513 181.1973,256.88193 179.809,258.27043 -0.1768,0.1766 -9.5914,1.1841 -20.9214,2.2387 -17.3177,1.612 -50.2755,1.9463 -206.85,2.0977 -206.6445,0.1997 -193.35,0.7048 -210,-7.9789 -15.1899,-7.9223 -23.2141,-17.875 -81.83424,-101.5029 -29.8787,-42.625 -70.5172,-100.4448 -90.3078,-128.4884 -19.7906,-28.04373 -35.983,-51.35673 -35.983,-51.80663 0,-0.45 -1.317,-2.2552 -2.9267,-4.0116 -1.6097,-1.7564 -19.161,-26.2559 -39.0029,-54.4434 -64.5246,-91.66377 -292.2419,-413.21606 -306.9129,-433.38179 -7.8554,-10.79747 -14.845,-19.48155 -15.5325,-19.29793 -0.6875,0.18361 -22.625,32.13393 -48.75,71.00072 -26.125,38.86679 -62.1854,91.70711 -80.1342,117.42295 -17.9489,25.71583 -52.0427,75.46991 -75.764,110.56462 -81.1324,120.03195 -117.6612,169.45859 -165.1393,223.44853 -122.649104,139.47083 -264.9189,226.34713 -424.9859,259.51563 -42.7668,8.862 -80.5487,13.1079 -134.3272,15.0955 -117.8993,4.3574 -225.297,4.7969 -1018.03626,4.1668 z m 3077.1369,-6.2207 c -4.8125,-1.0214 -12.9081,-3.8477 -17.9902,-6.2805 -16.1629,-7.7378 -23.8559,-16.6308 -68.1892,-78.8257 -21.6771,-30.4106 -68.6702,-95.5029 -104.4292,-144.6497 -35.759,-49.14673 -65.0164,-89.65598 -65.0164,-90.02056 0,-0.36458 299.2969,-0.66287 665.1041,-0.66287 365.9505,0 664.9168,0.47909 664.6875,1.06516 -0.2291,0.58584 -5.0805,9.16397 -10.7809,19.06254 -7.7531,13.4631 -18.2578,28.2323 -41.6958,58.6223 -115.2524,149.43803 -164.5637,210.82143 -177.0839,220.43653 -10.249,7.8709 -19.2323,12.6125 -32.731,17.2765 l -11.875,4.1028 -105.625,0.8213 c -58.0938,0.4517 -236.125,0.841 -395.625,0.8652 -251.88,0.039 -291.1501,-0.2002 -298.75,-1.813 z M 1398.2414,752.92667 c -3.3946,-0.48857 -8.2748,-1.76699 -10.8452,-2.84091 -5.6526,-2.36184 -14.1126,-9.79363 -16.5799,-14.56488 -5.5331,-10.69985 -5.3708,4.90093 -4.451,-427.95591 l 0.8688,-408.75 2.8185,-7.07086 c 3.5617,-8.93543 11.1927,-16.16426 20.3246,-19.25343 6.4426,-2.17946 14.851,-2.28677 170.691,-2.17828 186.2563,0.12966 173.3933,-0.57886 184.0663,10.1387 4.0028,4.01957 6.5542,8.02618 8.1121,12.73887 2.1691,6.56203 2.3097,24.05979 3.0899,384.375 0.4495,207.625 0.8145,391.5625 0.8111,408.75 0,26.72115 -0.3374,32.32628 -2.2919,38.67653 -4.4577,14.48333 -12.3099,22.37258 -26.2232,26.34731 -6.5884,1.88217 -22.1514,2.09595 -165.745,2.27669 -87.1608,0.10975 -161.2514,-0.20027 -164.646,-0.68883 z M -617.97374,739.74489 c -53.8986,-0.17603 -97.9976,-0.4575 -97.9976,-0.62546 0,-0.16796 0.834,-4.24269 1.8533,-9.05492 1.0193,-4.81225 1.8631,-13.97638 1.875,-20.36474 0.046,-24.42765 -6.8,-43.16105 -20.6228,-56.43426 -12.9119,-12.39869 -27.179,-17.7135 -60.501,-22.53805 -33.3143,-4.82343 -51.1108,-5.09034 -327.00206,-4.90452 -325.278,0.21909 -401.691,-1.05933 -461.8525,-7.72696 -63.9461,-7.08707 -138.3787,-24.4478 -192.5,-44.89887 -124.9215,-47.20469 -189.9752,-150.99791 -189.9918,-303.13214 -0.013,-121.83143 41.7932,-213.755425 123.1168,-270.70860528 17.6791,-12.38113972 46.1387,-27.48693972 77.5,-41.13546472 76.9536,-33.49038 143.4049,-51.09411 207.5,-54.96916 67.8045,-4.09931 332.7826,-6.27007 765.00006,-6.26706 l 380,0.003 9.375,2.94035 c 5.1618,1.61891 9.2325,3.58069 9.0579,4.3652 -0.1744,0.78367 -30.5158,41.21549 -67.4253,89.8484847 -98.0813,129.2349353 -152.6992,199.5995753 -159.582,205.5907853 -4.6648,4.06072 -14.3833,7.95857 -26.4256,10.59874 -7.7151,1.69147 -56.7975,2.03006 -415.00006,2.86281 -293.0059,0.68119 -410.954,1.35292 -423.125,2.40979 -26.6659,2.3155 -58.9141,7.30015 -68.7441,10.62586 -27.5939,9.33567 -41.8672,30.54986 -43.4194,64.5337 -1.2241,26.79986 5.3625,46.74999 20.1101,60.91137 12.343,11.85229 24.3239,16.76361 52.1612,21.38237 34.6802,5.75411 27.9541,5.6385 336.1422,5.77777 296.99126,0.13423 359.72906,0.88255 418.12506,4.98735 79.6265,5.59713 161.4891,18.74789 215.625,34.63894 52.4515,15.3966 99.4403,45.1868 131.4529,83.33927 10.991,13.09902 28.5526,38.59508 37.6911,54.72034 22.0668,38.93709 37.7435,95.17726 36.8431,132.17386 l -0.3621,14.87935 -10,4.28113 c -41.9266,17.94925 -92.0674,28.95671 -142.8366,31.3571 -9.9236,0.46919 -62.142,0.70904 -116.0408,0.533 z"
       id="path3346"
       inkscape:connector-curvature="0" />
  </g>
</svg>
